<?xml version="1.0" encoding="UTF-8" standalone="no"?>
<!DOCTYPE svg PUBLIC "-//W3C//DTD SVG 1.1//EN" "http://www.w3.org/Graphics/SVG/1.1/DTD/svg11.dtd">
<svg width="100%" height="100%" viewBox="0 0 750 750" version="1.1" xmlns="http://www.w3.org/2000/svg" xmlns:xlink="http://www.w3.org/1999/xlink" xml:space="preserve" xmlns:serif="http://www.serif.com/" style="fill-rule:evenodd;clip-rule:evenodd;stroke-linejoin:round;stroke-miterlimit:2;">
    <circle cx="375" cy="375" r="375" style="fill:rgb(44,46,52);"/>
    <g transform="matrix(0.97293,0,0,0.97293,10.1516,66.5599)">
        <g transform="matrix(1.16554,0,0,1.08515,14.0669,198.053)">
            <g>
                <path d="M170.754,5.905L194.5,5.5L194.5,36.5C195.143,35.633 195.793,34.749 196.452,33.852C207.57,18.716 221.318,0 252,0C285.6,4 294.5,31.833 295,45C298,62.833 297.134,103.378 276,128.5C250.361,158.977 214.736,153.57 196.298,150.772C195.679,150.678 195.079,150.587 194.5,150.5L194.5,206.5L170,206.5L170.754,5.905ZM345.5,5.5L317.5,5.5C340,51.667 385,144.4 385,146C385,148 375,172.5 363.5,181C352,189.5 343.5,191.5 337,191.5C331.8,191.5 320.833,189.5 316,188.5L316,208C319,209 326.3,211.1 331.5,211.5C338,212 356.5,209.5 368,204C377.2,199.6 387.5,186.833 391.5,181L411.5,140.5L466.5,5.5L443,5.5L398,113.5L345.5,5.5ZM194.5,128.5L194.5,67.5C197.333,58.5 221,24.5 242,24.5C269.5,24.5 270.5,59.5 270.5,64.5C270.5,71 270.5,98.5 257.5,112.5C245.228,125.716 236,132 220,132C213.44,132 204.5,131 194.5,128.5Z" style="fill:rgb(253,167,3);stroke:rgb(44,46,52);stroke-width:2.66px;"/>
            </g>
        </g>
        <g transform="matrix(1.16743,0,0,1.65422,11.6372,185.377)">
            <path d="M141.5,9L0,79.5L141.5,150.5L141.5,128.5L46,79.5L141.5,31.5L141.5,9ZM481.5,9.5L622.5,80L481.5,151.5L481.5,128L578.5,80L481.5,30.5L481.5,9.5Z" style="fill:rgb(253,167,3);stroke:rgb(44,46,52);stroke-width:2.1px;"/>
        </g>
    </g>
</svg>
